<?xml version="1.0" encoding="UTF-8"?><svg id="Layer_2" xmlns="http://www.w3.org/2000/svg" viewBox="0 0 1106.73 330.76"><defs><style>.cls-1{fill:#f1f1f1;}</style></defs><g id="Layer_1-2"><g><path class="cls-1" d="M317.59,0c6.08,1.31,12.22,2.38,18.22,3.96,57.77,15.23,97.2,67.32,95.75,126.34-1.47,59.46-43.31,109.56-101.93,122.04-72.74,15.5-144.38-35.94-152.78-109.69C168.9,72.9,216.54,11.06,285.89,1.06c1.01-.15,1.96-.7,2.93-1.06,9.59,0,19.18,0,28.77,0Z"/><path class="cls-1" d="M0,47.47c2.37,.18,4.74,.52,7.11,.52,54.59,.03,109.17,.02,163.76,.02,2.18,0,4.35,0,7.34,0-28.53,49.91-31.83,100.47-4.06,150.51,27.69,49.89,71.99,74.4,129.21,77.18v55.05c-60.58-1.23-111.56-23.46-151.8-68.46-40.19-44.94-56.01-98.22-50.53-158.33H55.58v223.38c-2.89,0-5.21-.02-7.54,0-16.02,.18-32.03,.36-48.05,.54,0-93.47,0-186.95,0-280.42Z"/><path class="cls-1" d="M674.12,71.71c-5.61,14.1-11.22,28.21-16.83,42.31-6.45,16.21-13.16,32.32-19.22,48.68-1.78,4.8-4.91,4.01-8.26,3.99-3.31-.02-6.38,.85-8.25-3.93-11.43-29.24-23.31-58.29-35.05-87.41-.47-1.15-.97-2.29-2.23-3.35v81.41h10.61v13.03h-36.24v-12.57c3.44-.15,6.52-.29,9.95-.45V68.71c-3.28-.17-6.51-.33-10-.51v-14.11c11.2,0,22.06-.21,32.9,.22,1.64,.06,3.9,2.78,4.63,4.74,10.55,28.2,20.89,56.48,31.29,84.74,.69,1.87,1.46,3.72,2.65,6.71,4.19-11.19,8-21.34,11.79-31.49,7.51-20.13,15.09-40.24,22.41-60.43,1.29-3.55,3.01-4.71,6.77-4.59,9.53,.3,19.08,.1,28.91,.1v14.08c-3.25,.16-6.46,.32-10.03,.5v84.7c3.22,.15,6.29,.3,9.85,.47v12.37h-36.09v-12.47h11.44V71.88c-.34-.06-.69-.12-1.03-.17Z"/><path class="cls-1" d="M574.05,311.52c3.99,.24,7.41,.44,11.07,.66v12.59h-36.1v-12.04c.34-.24,.67-.66,.92-.62,7.07,1.12,9.49-2.74,11.57-8.92,9.71-28.7,20.05-57.19,29.95-85.83,1.34-3.89,2.99-5.7,7.31-5.3,5.47,.51,12.35-1.53,16.1,1.11,3.73,2.62,4.45,9.62,6.27,14.78,9.13,25.79,18.36,51.55,27.12,77.47,1.73,5.13,4.07,7.3,9.33,6.5,1.21-.18,2.51,.2,4.04,.35v12.5h-36.12v-12.55c2.65-.22,5.32-.43,8.66-.71-2.71-7.8-5.14-15.24-7.98-22.51-.43-1.11-2.82-2.03-4.32-2.05-11.98-.16-23.97-.17-35.95,.01-1.44,.02-3.72,1.1-4.16,2.24-2.74,7.18-5.07,14.51-7.71,22.32Zm29.77-87.08c-5.88,17.2-11.28,33.02-16.85,49.31h34.06c-5.67-16.25-11.21-32.11-17.21-49.31Z"/><path class="cls-1" d="M937.9,222.36c-3.62-.18-6.84-.34-10.31-.52v-12.17h24.58v44.73c6.38-2.63,12.02-5.9,18.09-7.27,18.58-4.21,32.21,6.8,32.47,25.76,.17,12.66,.03,25.32,.03,38.58,3.93,.25,7.49,.48,11.42,.73v12.5h-36.04v-12.52c3.25-.19,6.32-.38,9.74-.58,0-13.11,.72-26.15-.23-39.07-.75-10.19-10.05-15.46-21.01-12.78-4.35,1.06-8.37,3.65-12.36,5.86-1.02,.57-1.91,2.35-1.93,3.59-.13,13.93-.08,27.86-.08,42.33,3.7,.21,6.92,.39,10.58,.59v12.5h-36.16v-12.49c3.78-.18,7.37-.34,11.22-.52v-89.26Z"/><path class="cls-1" d="M1069.92,153.68h10.87v12.67h-24.54c-.22-1.27-.47-2.75-.83-4.8-6.67,5.28-13.82,7.8-21.87,6.97-20.01-2.07-32.38-14.75-33.98-35.49-.46-5.96-.12-12.24,1.29-18.02,5.52-22.54,30.57-33.96,51.65-23.95,.81,.38,1.59,.81,2.92,1.5v-28.5h-9.59v-12.72h24.07v102.35Zm-14.05-25.79c0-5.87-.2-11.75,.08-17.61,.16-3.48-1.28-5.32-4.21-6.84-16.93-8.81-34.77-.28-37.14,18.58-.81,6.46,.03,13.7,2.2,19.85,5,14.16,23.09,19.14,35.21,10.17,1.96-1.45,3.45-4.6,3.69-7.1,.54-5.64,.17-11.36,.17-17.05Z"/><path class="cls-1" d="M835.13,260.78h-10.09v-12.55h24.31c.21,2.47,.4,4.78,.65,7.63,1.82-1.19,3.2-2.42,4.82-3.09,5.38-2.23,10.69-5.39,16.31-6.14,17.79-2.36,29.47,8.21,29.79,26.21,.19,10.84,.04,21.69,.04,32.53,0,1.97,0,3.94,0,6.18,3.94,.22,7.19,.41,10.65,.6v12.64h-35.69v-12.53c3.24-.25,6.61-.5,10.28-.78,0-12.87,.51-25.55-.17-38.16-.51-9.54-7.42-15.06-17.62-13.8-5.73,.71-11.15,4.11-16.61,6.54-.87,.39-1.64,2.07-1.65,3.15-.11,13.93-.07,27.86-.07,42.34,3.7,.19,6.93,.35,10.5,.52v12.56h-35.67v-12.46c3.37-.2,6.63-.4,10.23-.61v-50.81Z"/><path class="cls-1" d="M786.4,280.26c1.5-16.99-5.9-23.99-22.11-21.17-5.19,.9-10.23,2.7-16.03,4.27-1.17-2.51-2.59-5.56-4.23-9.08,14.13-7.93,28.44-11.38,43.56-5.12,10.37,4.29,13.23,13.68,13.37,23.99,.17,12.65,.04,25.3,.04,38.24,2.89,.31,5.36,.58,8.14,.87v12.46h-22.08c-.18-1.88-.34-3.63-.58-6.27-7.23,5.99-14.74,9.13-23.71,8.57-11.69-.72-21.68-8.55-23.4-18.99-1.89-11.47,4.14-21.57,15.71-26,10.14-3.88,20.62-3.06,31.33-1.79Zm.36,8.8c-8.96,.88-17.54,.64-25.47,2.79-9.35,2.54-11.46,14.41-4.44,20.11,7.12,5.78,24.13,3.27,29.16-4.33,.38-.58,.71-1.33,.71-2,.06-5.08,.03-10.17,.03-16.57Z"/><path class="cls-1" d="M1086.67,311.5c2.95,.27,5.46,.49,8.31,.75v12.47h-22.05c-.27-1.79-.54-3.52-.91-5.94-7.08,5.7-14.62,8.82-23.58,8.26-11.81-.75-21.22-8.24-23.21-19.13-2.01-11.02,3.96-21.12,15.25-25.66,10.11-4.07,20.56-3.24,31.03-2.08,3.86-12.66-2.69-22.12-15.7-21.46-7.17,.36-14.24,2.61-21.99,4.14-.98-2.06-2.38-4.99-3.73-7.84,8.88-8.45,32.81-12.28,45.02-5.15,8.33,4.87,11.37,12.72,11.52,21.84,.19,11.39,.05,22.78,.05,34.17,0,1.81,0,3.62,0,5.63Zm-14.23-22.48c-9.06,.94-17.47,1.28-25.63,2.86-4.74,.92-7.54,5-8.01,10.13-.42,4.6,1.08,8.28,5.07,10.81,7.3,4.61,22.3,2.07,27.53-4.72,.52-.68,.98-1.61,.99-2.44,.09-5.09,.05-10.18,.05-16.64Z"/><path class="cls-1" d="M877.85,127.45c-.21,16.16-5.24,29.33-19.61,36.98-13.53,7.2-27.46,6.74-40.53-1.31-17.52-10.79-22.77-38.29-11.46-57.7,10-17.16,33.36-23.47,51.87-13.63,14.43,7.67,19.54,20.69,19.73,35.65Zm-13.53,.96c-.31-.1-.61-.2-.92-.3-.16-2.2-.18-4.42-.51-6.59-1.77-11.55-8.5-19.23-18.61-21.37-9.76-2.06-19.48,1.66-24.27,10.15-6.63,11.78-6.78,24.08,.18,35.67,9.24,15.39,31.09,14.55,39.24-1.46,2.51-4.92,3.3-10.72,4.88-16.11Z"/><path class="cls-1" d="M763.25,120.43c1.97-13.94-4.46-21.22-19.77-19.78-6.11,.57-12.07,2.8-18.54,4.39-1.12-2.31-2.55-5.26-3.96-8.17,9.65-9.2,34.87-11.89,45.9-4.66,8.54,5.6,10.68,14.12,10.83,23.46,.17,10.66,.04,21.33,.04,32,0,1.8,0,3.6,0,5.71,2.83,.18,5.14,.32,7.76,.48v12.51h-21.7c-.15-1.72-.31-3.48-.52-5.91-7.12,5.4-14.45,9.04-23.44,8.53-11.67-.66-21.97-8.5-23.73-18.74-2.03-11.78,3.78-22.89,15.97-26.14,9.89-2.64,20.51-2.53,31.16-3.67Zm.28,10.15c-9.35,1.09-17.79,1.47-25.92,3.25-5.49,1.2-8.43,6.73-8.15,11.77,.3,5.29,3.73,9.55,9.43,10.78,8.4,1.81,16.08,0,22.55-5.82,.99-.88,1.93-2.37,1.99-3.62,.23-4.9,.09-9.82,.09-16.35Z"/><path class="cls-1" d="M891.71,145.54c3.44,0,6.01,.11,8.58-.03,3.82-.21,6.47,0,8.04,4.82,1.87,5.73,7.84,6.7,13.34,6.92,5.72,.24,11.15-.72,14.52-6.06,2.83-4.47,1.03-10.11-4.69-12.74-6.99-3.22-14.39-5.57-21.53-8.49-6.62-2.71-12.54-6.35-14.77-13.78-3.72-12.37,3.49-24.76,16.66-27.68,11.77-2.61,23-1.96,32.39,7.29,1.64,1.62,4.99,1.52,8.09,2.36v12.08h-14.24c-4.93-9.45-12.05-13.04-21.63-10.62-4.37,1.1-7.9,3.38-8.34,8.35-.41,4.69,2.17,7.63,6.36,9.22,6.87,2.6,13.83,4.96,20.68,7.62,12.85,4.99,18.28,14.49,15.44,26.71-1.47,6.33-5.47,10.64-11,13.77-9.85,5.57-31.43,5.96-39.51-4.85-1.33-1.78-5.25-1.64-8.41-2.5v-12.4Z"/><path class="cls-1" d="M695.85,311.73h12.11v13.11h-37.48v-12.6c3.04-.21,6.26-.43,9.77-.68v-50.65h-9.74v-12.66h24.19c.16,2.62,.31,5.11,.55,8.97,7.68-12.62,19.05-9.82,30.11-9.75v16.44h-13.39c-.33-1.05-.8-2.51-1.27-4-.66-.04-1.23-.2-1.73-.08-7.17,1.75-12.42,6.34-12.88,13.45-.83,12.57-.23,25.24-.23,38.45Z"/><path class="cls-1" d="M1103.14,88.12h-13.38V49.56c5.41-.41,10.8-.82,16.96-1.29-1.22,13.57-2.38,26.45-3.58,39.84Z"/><path class="cls-1" d="M730.12,77.49c-2.37-1.14-4.81-2.31-7.19-3.45,2.86-10.53,12.84-15.36,23.03-11.22,3.22,1.31,6.14,3.31,9.26,4.88,4.4,2.21,7.98,2.06,11.76-2.09,1.47-1.61,5.87-.57,9.18-.75-1.77,10.76-9.73,16.26-19.56,14.18-3.7-.78-7.26-2.59-10.64-4.38-7.62-4.01-10.1-3.71-15.84,2.83Z"/></g></g></svg>